<svg xmlns="http://www.w3.org/2000/svg" width="17" height="17" viewBox="0 0 17 17"><g><g><path fill="#b4c3d0" d="M14.514 12.793a8.96 8.96 0 0 0-1.781-.84c.215-.908.343-1.89.378-2.902h2.76a7.36 7.36 0 0 1-1.357 3.742zm-3.25 2.562c.513-.698.894-1.525 1.166-2.336.495.177.953.39 1.365.634a7.418 7.418 0 0 1-2.53 1.702zm-2.209.434v-3.397c.808.034 1.587.14 2.312.312-.395 1.159-1.167 2.665-2.312 3.085zm0-6.738h2.947c-.033.905-.146 1.78-.333 2.588a13.3 13.3 0 0 0-2.614-.356zm0-3.334a13.3 13.3 0 0 0 2.614-.356c.187.808.3 1.68.333 2.585H9.055zm0-4.506c1.145.42 1.917 1.925 2.312 3.085-.725.172-1.504.278-2.312.312zm4.74 2.136c-.412.244-.87.457-1.365.634-.272-.81-.653-1.637-1.165-2.336.959.388 1.819.972 2.53 1.702zm.72.86a7.348 7.348 0 0 1 1.357 3.739H13.11a14.841 14.841 0 0 0-.378-2.898 8.963 8.963 0 0 0 1.781-.841zm-6.568.4a12.206 12.206 0 0 1-2.312-.311C6.03 3.137 6.802 1.63 7.947 1.21zm0 3.339H5c.033-.905.146-1.777.333-2.585.823.2 1.704.32 2.614.356zm0 3.337a13.3 13.3 0 0 0-2.614.356c-.187-.808-.3-1.68-.333-2.585h2.947zm0 4.506c-1.145-.42-1.917-1.925-2.312-3.085a12.206 12.206 0 0 1 2.312-.312zm-4.74-2.136zm1.365-.634c.272.81.653 1.637 1.165 2.336a7.416 7.416 0 0 1-2.53-1.702c.412-.244.87-.457 1.365-.634zm-2.084-.226A7.348 7.348 0 0 1 1.13 9.054h2.761c.035 1.012.163 1.99.378 2.898a8.963 8.963 0 0 0-1.781.841zm0-8.586c.53.33 1.13.613 1.781.84a14.842 14.842 0 0 0-.378 2.899h-2.76a7.348 7.348 0 0 1 1.357-3.74zm3.25-2.562c-.513.698-.894 1.525-1.166 2.336a7.906 7.906 0 0 1-1.365-.634 7.418 7.418 0 0 1 2.53-1.702zM8.5 0c-4.687 0-8.5 3.813-8.5 8.5 0 4.687 3.813 8.5 8.5 8.5 4.687 0 8.5-3.813 8.5-8.5 0-4.687-3.813-8.5-8.5-8.5z"/></g></g></svg>