<?xml version="1.0"?>
<!--Icons from directory ""-->
<svg xmlns="http://www.w3.org/2000/svg" width="22" height="89" viewBox="0 0 22 89"><svg width="17" height="17" id="globe" y="0"><path fill="#b4c3d0" d="M14.514 12.793a8.96 8.96 0 0 0-1.781-.84c.215-.908.343-1.89.378-2.902h2.76a7.36 7.36 0 0 1-1.357 3.742zm-3.25 2.562c.513-.698.894-1.525 1.166-2.336.495.177.953.39 1.365.634a7.418 7.418 0 0 1-2.53 1.702zm-2.209.434v-3.397c.808.034 1.587.14 2.312.312-.395 1.159-1.167 2.665-2.312 3.085zm0-6.738h2.947a13.77 13.77 0 0 1-.333 2.588 13.3 13.3 0 0 0-2.614-.356zm0-3.334a13.3 13.3 0 0 0 2.614-.356c.187.808.3 1.68.333 2.585H9.055zm0-4.506c1.145.42 1.917 1.925 2.312 3.085-.725.172-1.504.278-2.312.312zm4.74 2.136c-.412.244-.87.457-1.365.634-.272-.81-.653-1.637-1.165-2.336a7.42 7.42 0 0 1 2.53 1.702zm.72.86a7.348 7.348 0 0 1 1.357 3.739H13.11a14.841 14.841 0 0 0-.378-2.898 8.963 8.963 0 0 0 1.781-.841zm-6.568.4a12.206 12.206 0 0 1-2.312-.311C6.03 3.137 6.802 1.63 7.947 1.21zm0 3.339H5c.033-.905.146-1.777.333-2.585.823.2 1.704.32 2.614.356zm0 3.337a13.3 13.3 0 0 0-2.614.356c-.187-.808-.3-1.68-.333-2.585h2.947zm0 4.506c-1.145-.42-1.917-1.925-2.312-3.085a12.206 12.206 0 0 1 2.312-.312zm-4.74-2.136zm1.365-.634c.272.81.653 1.637 1.165 2.336a7.416 7.416 0 0 1-2.53-1.702c.412-.244.87-.457 1.365-.634zm-2.084-.226A7.348 7.348 0 0 1 1.13 9.054h2.761c.035 1.012.163 1.99.378 2.898a8.963 8.963 0 0 0-1.781.841zm0-8.586c.53.33 1.13.613 1.781.84a14.842 14.842 0 0 0-.378 2.899h-2.76a7.348 7.348 0 0 1 1.357-3.74zm3.25-2.562c-.513.698-.894 1.525-1.166 2.336a7.906 7.906 0 0 1-1.365-.634 7.418 7.418 0 0 1 2.53-1.702zM8.5 0C3.813 0 0 3.813 0 8.5 0 13.187 3.813 17 8.5 17c4.687 0 8.5-3.813 8.5-8.5C17 3.813 13.187 0 8.5 0z"/></svg><svg width="10" height="17" id="ok-gray" y="17"><path fill="#b6c6d6" d="M4.995 2.153a2.056 2.056 0 0 0-2.06 2.082 2.044 2.044 0 0 0 2.067 2.043 2.048 2.048 0 0 0 2.056-2.067 2.041 2.041 0 0 0-2.059-2.057zm-.03 6.276A4.157 4.157 0 0 1 2.01 7.18 4.17 4.17 0 0 1 .788 4.205C.8 1.887 2.692 0 5.005 0a4.167 4.167 0 0 1 2.967 1.237 4.243 4.243 0 0 1 1.233 3.032c-.012 2.293-1.908 4.16-4.226 4.16zm-3.102 8.223a.992.992 0 0 1-.435-.106c-.412-.199-.675-.618-.654-1.044.012-.25.124-.473.35-.699l2.431-2.434.411-.412.127-.136.086-.093c-1.497-.155-2.562-.535-3.452-1.231a4.282 4.282 0 0 1-.363-.3C-.07 9.782-.117 9.3.228 8.805a.936.936 0 0 1 .781-.418c.171 0 .348.042.526.126.1.047.195.105.286.168a5.69 5.69 0 0 0 3.194.978 5.49 5.49 0 0 0 3.079-.92 1.67 1.67 0 0 1 .61-.316c.092-.024.185-.036.275-.036.338 0 .638.173.824.474.283.465.26.888-.067 1.225a5.06 5.06 0 0 1-1.825 1.178c-.559.217-1.198.36-2.071.464.122.134.168.184.224.24l1.082 1.085c.602.603 1.2 1.202 1.795 1.804.319.323.397.731.215 1.121-.187.398-.59.666-1.002.666-.298-.018-.512-.119-.738-.347l-.69-.69a81.887 81.887 0 0 1-1.48-1.495c-.095-.1-.169-.145-.237-.145-.08 0-.155.06-.25.159-.728.749-1.468 1.487-2.212 2.22-.206.204-.436.307-.684.307z"/></svg><svg width="22" height="22" id="ok-prange" y="34"><path fill="#f5831b" d="M15.355 12.616a4.657 4.657 0 0 1-1.677 1.084c-.599.232-1.255.35-1.904.427.098.107.144.16.205.22.882.886 1.767 1.768 2.646 2.657.3.303.362.678.197 1.03-.18.385-.584.638-.98.61-.25-.017-.446-.141-.62-.316-.665-.67-1.342-1.327-1.994-2.01-.19-.198-.28-.16-.449.013-.669.689-1.349 1.367-2.033 2.041-.307.303-.673.358-1.029.185-.379-.183-.62-.57-.601-.96.013-.262.142-.463.323-.642.872-.871 1.742-1.745 2.612-2.618.058-.057.112-.119.195-.209-1.186-.124-2.256-.416-3.173-1.132-.114-.09-.23-.175-.334-.275-.402-.385-.442-.827-.125-1.281.272-.389.727-.493 1.201-.27.092.044.18.098.263.156 1.707 1.173 4.053 1.205 5.767.052.17-.13.351-.236.562-.29a.881.881 0 0 1 1.01.403c.25.409.247.808-.062 1.125zm-4.34-9.27c2.143.005 3.863 1.758 3.852 3.924-.01 2.116-1.759 3.831-3.898 3.824-2.117-.007-3.853-1.762-3.84-3.883a3.88 3.88 0 0 1 3.887-3.866zM11 0C4.925 0 0 4.925 0 11s4.925 11 11 11 11-4.925 11-11S17.075 0 11 0z"/></svg><svg width="22" height="22" id="vk-blue" y="56"><path fill="#4a719a" d="M12.481 13.944c-.53.169-.52 1.317-.52 1.329 0 .002.002.25-.12.379-.13.141-.39.172-.393.172l-.937.002c-.324 0-2.016-.079-3.51-1.633-1.808-1.883-3.428-5.648-3.444-5.686-.001-.002-.092-.25.007-.367.113-.133.421-.144.424-.144l2.064-.013a.91.91 0 0 1 .334.135c.113.083.179.24.18.242.002.008.339.853.774 1.606.687 1.187 1.111 1.693 1.418 1.693a.285.285 0 0 0 .139-.036c.42-.23.3-2.087.299-2.106 0-.007.006-.683-.215-.983-.16-.218-.444-.292-.676-.352-.013-.08.16-.281.356-.377.315-.154.822-.186 1.487-.186l.316.002c.593.006.771.042 1.014.101.547.132.53.55.493 1.47-.011.273-.024.59-.024.957l-.005.259c-.013.471-.027 1.005.382 1.234.198 0 .605-.288 1.41-1.656a12.74 12.74 0 0 0 .803-1.694.609.609 0 0 1 .192-.232c.057-.035.126-.05.27-.05h.01l2.172-.014s.078-.01.185-.01c.184 0 .503.03.573.227.114.317-.267 1.062-1.131 2.214-.185.246-.35.459-.492.644-.973 1.259-.973 1.259.083 2.239.488.453 1.134 1.109 1.433 1.659.135.222.164.408.089.553-.143.27-.613.302-.618.302l-2.038.035c-.155 0-.472-.039-.852-.3-.285-.196-.562-.513-.83-.82-.362-.416-.706-.81-1.004-.81zM22.001 11c0-6.065-4.935-11-11-11C4.934 0 0 4.935 0 11s4.934 11 11 11c6.065 0 11-4.935 11-11z"/></svg><svg width="18" height="11" id="vk-gray" y="78"><path fill="#b4c3d0" d="M8.807 10.226h1.076s.325-.036.49-.215c.153-.164.148-.472.148-.472s-.02-1.444.65-1.657c.66-.21 1.508 1.396 2.407 2.013.68.467 1.197.364 1.197.364l2.403-.033s1.258-.078.662-1.066c-.05-.081-.348-.732-1.788-2.068-1.507-1.4-1.305-1.173.51-3.593 1.106-1.474 1.548-2.374 1.41-2.759-.131-.367-.945-.27-.945-.27l-2.706.017s-.2-.027-.35.061c-.145.088-.239.291-.239.291s-.428 1.14-1 2.11c-1.205 2.047-1.686 2.155-1.883 2.028-.459-.296-.344-1.19-.344-1.825 0-1.983.3-2.81-.586-3.024C9.625.057 9.409.01 8.656.002c-.966-.01-1.783.003-2.246.23-.308.15-.545.487-.4.506.178.024.583.11.798.402.277.377.268 1.225.268 1.225s.159 2.334-.373 2.624c-.364.2-.865-.207-1.94-2.064-.55-.95-.965-2.002-.965-2.002s-.08-.196-.224-.301C3.401.494 3.158.454 3.158.454L.587.47S.2.48.059.649c-.126.15-.01.458-.01.458s2.013 4.711 4.293 7.085c2.09 2.177 4.465 2.034 4.465 2.034z"/></svg></svg>
