<svg xmlns="http://www.w3.org/2000/svg" width="22" height="22" viewBox="0 0 22 22"><g><g><path fill="#f5831b" d="M15.355 12.616a4.657 4.657 0 0 1-1.677 1.084c-.599.232-1.255.35-1.904.427.098.107.144.16.205.22.882.886 1.767 1.768 2.646 2.657.3.303.362.678.197 1.03-.18.385-.584.638-.98.61-.25-.017-.446-.141-.62-.316-.665-.67-1.342-1.327-1.994-2.01-.19-.198-.28-.16-.449.013-.669.689-1.349 1.367-2.033 2.041-.307.303-.673.358-1.029.185-.379-.183-.62-.57-.601-.96.013-.262.142-.463.323-.642.872-.871 1.742-1.745 2.612-2.618.058-.057.112-.119.195-.209-1.186-.124-2.256-.416-3.173-1.132-.114-.09-.23-.175-.334-.275-.402-.385-.442-.827-.125-1.281.272-.389.727-.493 1.201-.27.092.044.18.098.263.156 1.707 1.173 4.053 1.205 5.767.052.17-.13.351-.236.562-.29a.881.881 0 0 1 1.01.403c.25.409.247.808-.062 1.125zm-4.34-9.27c2.143.005 3.863 1.758 3.852 3.924-.01 2.116-1.759 3.831-3.898 3.824-2.117-.007-3.853-1.762-3.84-3.883a3.88 3.88 0 0 1 3.887-3.866zM11 0C4.925 0 0 4.925 0 11s4.925 11 11 11 11-4.925 11-11S17.075 0 11 0z"/></g></g></svg>