<svg xmlns="http://www.w3.org/2000/svg" width="22" height="22" viewBox="0 0 22 22"><g><g><path fill="#4a719a" d="M12.481 13.944c-.53.169-.52 1.317-.52 1.329 0 .002.002.25-.12.379-.13.141-.39.172-.393.172l-.937.002c-.324 0-2.016-.079-3.51-1.633-1.808-1.883-3.428-5.648-3.444-5.686-.001-.002-.092-.25.007-.367.113-.133.421-.144.424-.144l2.064-.013a.91.91 0 0 1 .334.135c.113.083.179.24.18.242.002.008.339.853.774 1.606.687 1.187 1.111 1.693 1.418 1.693a.285.285 0 0 0 .139-.036c.42-.23.3-2.087.299-2.106 0-.007.006-.683-.215-.983-.16-.218-.444-.292-.676-.352-.013-.08.16-.281.356-.377.315-.154.822-.186 1.487-.186l.316.002c.593.006.771.042 1.014.101.547.132.53.55.493 1.47-.011.273-.024.59-.024.957l-.005.259c-.013.471-.027 1.005.382 1.234.198 0 .605-.288 1.41-1.656a12.74 12.74 0 0 0 .803-1.694.609.609 0 0 1 .192-.232c.057-.035.126-.05.27-.05h.01l2.172-.014s.078-.01.185-.01c.184 0 .503.03.573.227.114.317-.267 1.062-1.131 2.214-.185.246-.35.459-.492.644-.973 1.259-.973 1.259.083 2.239.488.453 1.134 1.109 1.433 1.659.135.222.164.408.089.553-.143.27-.613.302-.618.302l-2.038.035c-.155 0-.472-.039-.852-.3-.285-.196-.562-.513-.83-.82-.362-.416-.706-.81-1.004-.81zM22.001 11c0-6.065-4.935-11-11-11C4.934 0 0 4.935 0 11s4.934 11 11 11c6.065 0 11-4.935 11-11z"/></g></g></svg>