<svg xmlns="http://www.w3.org/2000/svg" width="18" height="11" viewBox="0 0 18 11"><g><g><path fill="#b4c3d0" d="M8.807 10.226h1.076s.325-.036.49-.215c.153-.164.148-.472.148-.472s-.02-1.444.65-1.657c.66-.21 1.508 1.396 2.407 2.013.68.467 1.197.364 1.197.364l2.403-.033s1.258-.078.662-1.066c-.05-.081-.348-.732-1.788-2.068-1.507-1.4-1.305-1.173.51-3.593 1.106-1.474 1.548-2.374 1.41-2.759-.131-.367-.945-.27-.945-.27l-2.706.017s-.2-.027-.35.061c-.145.088-.239.291-.239.291s-.428 1.14-1 2.11c-1.205 2.047-1.686 2.155-1.883 2.028-.459-.296-.344-1.19-.344-1.825 0-1.983.3-2.81-.586-3.024C9.625.057 9.409.01 8.656.002c-.966-.01-1.783.003-2.246.23-.308.15-.545.487-.4.506.178.024.583.11.798.402.277.377.268 1.225.268 1.225s.159 2.334-.373 2.624c-.364.2-.865-.207-1.94-2.064-.55-.95-.965-2.002-.965-2.002s-.08-.196-.224-.301C3.401.494 3.158.454 3.158.454L.587.47S.2.48.059.649c-.126.15-.01.458-.01.458s2.013 4.711 4.293 7.085c2.09 2.177 4.465 2.034 4.465 2.034z"/></g></g></svg>